#!OML:ASF H:\LiuWeirdWalks\Patient Classification 1\Patient 1\Session 1\male.ASF
:FULLY-SPECIFIED
:DEGREES
779
root 1.06689 18.2362 40.5369 5.27923 6.3085 -0.888668
lowerback -5.23861 -2.88869 -2.77325
upperback -1.8233 -3.78627 4.60796
thorax 1.54513 -1.8998 6.08616
lowerneck -3.33943 -19.7187 -14.4533
upperneck 16.5156 -27.3878 8.33089
head 8.81282 -13.3788 1.81494
rclavicle 5.51115e-014 1.59028e-015
rhumerus -22.343 -14.0139 -69.1618
rradius 23.7477
rwrist -6.14487
rhand -15.4071 1.38622
rfingers 7.12502
rthumb 10.772 -28.3176
lclavicle 5.51115e-014 1.59028e-015
lhumerus -43.0483 22.6886 69.6474
lradius 23.5095
lwrist 3.171
lhand -15.6547 -5.32172
lfingers 7.12502
lthumb 10.5332 24.3944
rfemur -13.4011 1.97585 20.7052
rtibia 30.7936
rfoot -5.38394 -18.0366
rtoes -4.94402
lfemur -10.9074 -4.01076 -17.4228
ltibia 27.5047
lfoot -5.06543 13.389
ltoes -1.61212
780
root 1.08491 18.2342 40.5049 5.21178 6.23795 -0.997689
lowerback -5.12417 -2.94374 -2.68292
upperback -1.78113 -3.86702 4.6441
thorax 1.53188 -1.94101 6.07065
lowerneck -3.38989 -19.6674 -14.388
upperneck 16.4616 -27.3121 8.34942
head 8.78766 -13.3382 1.82515
rclavicle -5.44678e-014 1.98785e-014
rhumerus -22.7034 -15.0042 -68.7188
rradius 23.1462
rwrist -3.30877
rhand -14.253 1.69476
rfingers 7.12502
rthumb 11.8851 -27.9479
lclavicle -5.44678e-014 1.98785e-014
lhumerus -42.62 22.5818 70.1569
lradius 23.5207
lwrist 3.00818
lhand -15.5571 -5.36381
lfingers 7.12502
lthumb 10.6274 24.3475
rfemur -13.4367 1.98077 20.7484
rtibia 30.7645
rfoot -5.28711 -17.9645
rtoes -4.97102
lfemur -10.9681 -3.94681 -17.3703
ltibia 27.5638
lfoot -5.09288 13.3963
ltoes -1.47779
781
root 1.10291 18.2321 40.4722 5.1724 6.15843 -1.10568
lowerback -5.02037 -2.99655 -2.59412
upperback -1.76407 -3.9438 4.68296
thorax 1.49821 -1.97927 6.05963
lowerneck -3.41609 -19.6143 -14.3527
upperneck 16.413 -27.2356 8.36877
head 8.76465 -13.2997 1.84062
rclavicle -1.73082e-014 3.18055e-015
rhumerus -23.0856 -15.6495 -68.408
rradius 22.6951
rwrist -1.96042
rhand -13.8037 1.88763
rfingers 7.12502
rthumb 12.3183 -27.7295
lclavicle -1.73082e-014 3.18055e-015
lhumerus -42.1921 22.4576 70.6615
lradius 23.5177
lwrist 2.85685
lhand -15.4129 -5.29235
lfingers 7.12502
lthumb 10.7665 24.4117
rfemur -13.5104 1.98867 20.7922
rtibia 30.7473
rfoot -5.19363 -17.898
rtoes -4.99582
lfemur -11.0631 -3.88123 -17.3166
ltibia 27.6281
lfoot -5.10986 13.4014
ltoes -1.37794
782
root 1.12087 18.2294 40.4388 5.1499 6.07019 -1.21522
lowerback -4.92446 -3.03415 -2.48523
upperback -1.75772 -4.00041 4.71423
thorax 1.45331 -2.00687 6.03082
lowerneck -3.44599 -19.5753 -14.3432
upperneck 16.3781 -27.1792 8.39398
head 8.75379 -13.2707 1.85537
rclavicle 2.00679e-014 -1.43125e-014
rhumerus -23.4714 -16.1187 -68.1731
rradius 22.3299
rwrist -1.56332
rhand -13.7917 1.94048
rfingers 7.12502
rthumb 12.3299 -27.676
lclavicle 2.00679e-014 -1.43125e-014
lhumerus -41.731 22.2992 71.1768
lradius 23.5048
lwrist 2.72371
lhand -15.2232 -5.09367
lfingers 7.12502
lthumb 10.9495 24.6008
rfemur -13.6094 1.99595 20.8388
rtibia 30.7402
rfoot -5.11026 -17.8341
rtoes -5.00682
lfemur -11.1776 -3.80434 -17.2605
ltibia 27.695
lfoot -5.12541 13.4024
ltoes -1.32096
783
root 1.13834 18.2267 40.4054 5.14235 5.97415 -1.32264
lowerback -4.92052 -2.89867 -2.14264
upperback -1.68004 -3.83513 4.61742
thorax 1.48213 -1.92473 5.7439
lowerneck -3.57249 -19.7019 -14.4162
upperneck 16.345 -27.3635 8.55233
head 8.81907 -13.342 1.86141
rclavicle -3.06253e-015 3.18055e-015
rhumerus -23.9577 -17.238 -67.7544
rradius 22.0097
rwrist -0.997315
rhand -13.756 1.96594
rfingers 7.12502
rthumb 12.3644 -27.6484
lclavicle -3.06253e-015 3.18055e-015
lhumerus -40.8816 21.7742 71.8939
lradius 23.3874
lwrist 2.55022
lhand -15.0229 -4.85413
lfingers 7.12502
lthumb 11.1427 24.83
rfemur -13.7272 2.01256 20.8846
rtibia 30.7349
rfoot -5.02463 -17.7752
rtoes -5.02199
lfemur -11.3125 -3.71827 -17.205
ltibia 27.7691
lfoot -5.15172 13.4006
ltoes -1.27515
784
root 1.1561 18.2238 40.3704 5.13125 5.8673 -1.43141
lowerback -4.86974 -2.81172 -1.8669
upperback -1.64224 -3.73133 4.5561
thorax 1.45928 -1.87198 5.5315
lowerneck -3.62707 -19.7765 -14.4942
upperneck 16.3255 -27.4857 8.7084
head 8.87072 -13.3881 1.88517
rclavicle 3.38431e-014 -4.69132e-014
rhumerus -24.4609 -18.2505 -67.3347
rradius 21.696
rwrist -0.423452
rhand -13.7212 1.9859
rfingers 7.12502
rthumb 12.3979 -27.6264
lclavicle 3.38431e-014 -4.69132e-014
lhumerus -40.1558 21.3421 72.5248
lradius 23.2588
lwrist 2.43544
lhand -14.894 -4.68714
lfingers 7.12502
lthumb 11.267 24.9903
rfemur -13.8469 2.03149 20.9301
rtibia 30.7308
rfoot -4.94579 -17.7133
rtoes -5.00229
lfemur -11.4502 -3.62714 -17.1501
ltibia 27.8482
lfoot -5.18997 13.4043
ltoes -1.21772
